<mxfile host="app.diagrams.net" modified="2024-02-06T17:53:25.233Z" agent="Mozilla/5.0 (X11; Linux x86_64; rv:109.0) Gecko/20100101 Firefox/114.0" etag="KRgI77uYDH5UORwlJVxH" version="23.1.1" type="github">
  <diagram name="Page-1" id="2R9JrRc5NXA1h5FDLCGX">
    <mxGraphModel dx="1434" dy="795" grid="1" gridSize="10" guides="1" tooltips="1" connect="1" arrows="1" fold="1" page="1" pageScale="1" pageWidth="850" pageHeight="1100" math="0" shadow="0">
      <root>
        <mxCell id="0" />
        <mxCell id="1" parent="0" />
        <mxCell id="3GcBf5aimE3yoV1bfSIr-6" value="Usuario" style="shape=umlLifeline;perimeter=lifelinePerimeter;whiteSpace=wrap;html=1;container=1;dropTarget=0;collapsible=0;recursiveResize=0;outlineConnect=0;portConstraint=eastwest;newEdgeStyle={&quot;curved&quot;:0,&quot;rounded&quot;:0};" parent="1" vertex="1">
          <mxGeometry x="130" y="90" width="100" height="300" as="geometry" />
        </mxCell>
        <mxCell id="3GcBf5aimE3yoV1bfSIr-11" value="" style="html=1;points=[[0,0,0,0,5],[0,1,0,0,-5],[1,0,0,0,5],[1,1,0,0,-5]];perimeter=orthogonalPerimeter;outlineConnect=0;targetShapes=umlLifeline;portConstraint=eastwest;newEdgeStyle={&quot;curved&quot;:0,&quot;rounded&quot;:0};" parent="3GcBf5aimE3yoV1bfSIr-6" vertex="1">
          <mxGeometry x="40" y="80" width="20" height="60" as="geometry" />
        </mxCell>
        <mxCell id="3GcBf5aimE3yoV1bfSIr-7" value="APP Música" style="shape=umlLifeline;perimeter=lifelinePerimeter;whiteSpace=wrap;html=1;container=1;dropTarget=0;collapsible=0;recursiveResize=0;outlineConnect=0;portConstraint=eastwest;newEdgeStyle={&quot;curved&quot;:0,&quot;rounded&quot;:0};" parent="1" vertex="1">
          <mxGeometry x="370" y="90" width="100" height="300" as="geometry" />
        </mxCell>
        <mxCell id="3GcBf5aimE3yoV1bfSIr-8" value="Servidor de la App" style="shape=umlLifeline;perimeter=lifelinePerimeter;whiteSpace=wrap;html=1;container=1;dropTarget=0;collapsible=0;recursiveResize=0;outlineConnect=0;portConstraint=eastwest;newEdgeStyle={&quot;curved&quot;:0,&quot;rounded&quot;:0};" parent="1" vertex="1">
          <mxGeometry x="610" y="90" width="100" height="300" as="geometry" />
        </mxCell>
        <mxCell id="3GcBf5aimE3yoV1bfSIr-12" value="Solicitar cuenta" style="html=1;verticalAlign=bottom;endArrow=block;curved=0;rounded=0;entryX=1;entryY=0;entryDx=0;entryDy=5;" parent="1" source="3GcBf5aimE3yoV1bfSIr-7" target="3GcBf5aimE3yoV1bfSIr-11" edge="1">
          <mxGeometry relative="1" as="geometry">
            <mxPoint x="150" y="195" as="sourcePoint" />
            <Array as="points">
              <mxPoint x="330" y="175" />
            </Array>
          </mxGeometry>
        </mxCell>
        <mxCell id="3GcBf5aimE3yoV1bfSIr-14" value="Envío de la cuenta" style="endArrow=open;endSize=12;dashed=1;html=1;rounded=0;exitX=1;exitY=1;exitDx=0;exitDy=-5;exitPerimeter=0;" parent="1" source="3GcBf5aimE3yoV1bfSIr-11" target="3GcBf5aimE3yoV1bfSIr-16" edge="1">
          <mxGeometry width="160" relative="1" as="geometry">
            <mxPoint x="180" y="220" as="sourcePoint" />
            <mxPoint x="340" y="220" as="targetPoint" />
          </mxGeometry>
        </mxCell>
        <mxCell id="3GcBf5aimE3yoV1bfSIr-15" value="frame" style="shape=umlFrame;whiteSpace=wrap;html=1;pointerEvents=0;" parent="1" vertex="1">
          <mxGeometry width="850" height="680" as="geometry" />
        </mxCell>
        <mxCell id="3GcBf5aimE3yoV1bfSIr-16" value="" style="html=1;points=[[0,0,0,0,5],[0,1,0,0,-5],[1,0,0,0,5],[1,1,0,0,-5]];perimeter=orthogonalPerimeter;outlineConnect=0;targetShapes=umlLifeline;portConstraint=eastwest;newEdgeStyle={&quot;curved&quot;:0,&quot;rounded&quot;:0};" parent="1" vertex="1">
          <mxGeometry x="410" y="210" width="20" height="30" as="geometry" />
        </mxCell>
        <mxCell id="3GcBf5aimE3yoV1bfSIr-17" value="" style="html=1;points=[[0,0,0,0,5],[0,1,0,0,-5],[1,0,0,0,5],[1,1,0,0,-5]];perimeter=orthogonalPerimeter;outlineConnect=0;targetShapes=umlLifeline;portConstraint=eastwest;newEdgeStyle={&quot;curved&quot;:0,&quot;rounded&quot;:0};" parent="1" vertex="1">
          <mxGeometry x="650" y="210" width="20" height="30" as="geometry" />
        </mxCell>
        <mxCell id="3GcBf5aimE3yoV1bfSIr-19" value="La cuenta existe" style="endArrow=open;endSize=12;dashed=1;html=1;rounded=0;" parent="1" edge="1">
          <mxGeometry x="-0.0042" y="10" width="160" relative="1" as="geometry">
            <mxPoint x="659.5" y="280" as="sourcePoint" />
            <mxPoint x="419.5" y="280" as="targetPoint" />
            <Array as="points" />
            <mxPoint as="offset" />
          </mxGeometry>
        </mxCell>
        <mxCell id="3GcBf5aimE3yoV1bfSIr-21" value="Envío de la&amp;nbsp; contraseña" style="endArrow=open;endSize=12;dashed=1;html=1;rounded=0;entryX=0.5;entryY=0.8;entryDx=0;entryDy=0;entryPerimeter=0;endFill=1;" parent="1" edge="1">
          <mxGeometry width="160" relative="1" as="geometry">
            <mxPoint x="180" y="370" as="sourcePoint" />
            <mxPoint x="420" y="370" as="targetPoint" />
          </mxGeometry>
        </mxCell>
        <mxCell id="3GcBf5aimE3yoV1bfSIr-29" value="Verificar si la cuenta existe" style="endArrow=block;endFill=1;html=1;edgeStyle=orthogonalEdgeStyle;align=left;verticalAlign=top;rounded=0;entryX=0;entryY=0;entryDx=0;entryDy=5;entryPerimeter=0;exitX=1;exitY=0;exitDx=0;exitDy=5;exitPerimeter=0;" parent="1" source="3GcBf5aimE3yoV1bfSIr-16" target="3GcBf5aimE3yoV1bfSIr-17" edge="1">
          <mxGeometry x="-0.5455" y="25" relative="1" as="geometry">
            <mxPoint x="430" y="220" as="sourcePoint" />
            <mxPoint x="590" y="220" as="targetPoint" />
            <mxPoint as="offset" />
          </mxGeometry>
        </mxCell>
        <mxCell id="3GcBf5aimE3yoV1bfSIr-30" value="1" style="edgeLabel;resizable=0;html=1;align=left;verticalAlign=bottom;" parent="3GcBf5aimE3yoV1bfSIr-29" connectable="0" vertex="1">
          <mxGeometry x="-1" relative="1" as="geometry" />
        </mxCell>
        <mxCell id="3GcBf5aimE3yoV1bfSIr-31" value="Solicita contraseña" style="endArrow=open;endFill=1;html=1;edgeStyle=orthogonalEdgeStyle;align=left;verticalAlign=bottom;rounded=0;dashed=1;endSize=8;curved=0;" parent="1" edge="1">
          <mxGeometry x="0.4958" y="-10" relative="1" as="geometry">
            <mxPoint x="419.5" y="320" as="sourcePoint" />
            <mxPoint x="179.5" y="320" as="targetPoint" />
            <Array as="points">
              <mxPoint x="290" y="320" />
              <mxPoint x="290" y="320" />
            </Array>
            <mxPoint as="offset" />
          </mxGeometry>
        </mxCell>
        <mxCell id="3GcBf5aimE3yoV1bfSIr-32" value="1" style="edgeLabel;resizable=0;html=1;align=left;verticalAlign=bottom;" parent="3GcBf5aimE3yoV1bfSIr-31" connectable="0" vertex="1">
          <mxGeometry x="-1" relative="1" as="geometry" />
        </mxCell>
        <mxCell id="3GcBf5aimE3yoV1bfSIr-33" value="&lt;div&gt;CombinedFragment1&lt;/div&gt;" style="shape=umlFrame;whiteSpace=wrap;html=1;pointerEvents=0;width=150;height=40;" parent="1" vertex="1">
          <mxGeometry x="10" y="260" width="830" height="370" as="geometry" />
        </mxCell>
      </root>
    </mxGraphModel>
  </diagram>
</mxfile>
